<?xml version="1.0" ?><svg enable-background="new 0 0 192 188" id="instagram" version="1.1" viewBox="0 0 192 188" xml:space="preserve" xmlns="http://www.w3.org/2000/svg" xmlns:xlink="http://www.w3.org/1999/xlink"><g><path d="M148,116c0,28.7189-23.2813,52-52,52c-28.7189,0-52-23.2811-52-52c0-16.088,7.3123-30.4607,18.7851-40H0   v71.0781C0,169.6425,18.3047,188,40.8007,188h110.3984C173.6951,188,192,169.6425,192,147.0781V76h-62.7853   C140.6875,85.5393,148,99.912,148,116z" fill="#FCD1C0"/><path d="M151.1991,0H40.8007C18.3047,0,0,18.3577,0,40.924V76h62.7851C71.7927,68.5097,83.3671,64,96,64   c12.6327,0,24.2071,4.5097,33.2147,12H192V40.924C192,18.3577,173.6951,0,151.1991,0z M60,70H48H36H24H12V24h12h12h12h12V70z    M172,49.6017C172,55.336,167.336,60,161.6015,60h-19.2032C136.664,60,132,55.336,132,49.6017V30.3985   C132,24.664,136.664,20,142.3983,20h19.2032C167.336,20,172,24.664,172,30.3985V49.6017z" fill="#A48659"/><path d="M161.6015,20h-19.2032C136.664,20,132,24.664,132,30.3985v19.2032C132,55.336,136.664,60,142.3983,60   h19.2032C167.336,60,172,55.336,172,49.6017V30.3985C172,24.664,167.336,20,161.6015,20z" fill="#2F4556"/><path d="M44,116c0,28.7189,23.2811,52,52,52c28.7187,0,52-23.2811,52-52c0-16.088-7.3125-30.4607-18.7853-40   C120.2071,68.5097,108.6327,64,96,64c-12.6329,0-24.2073,4.5097-33.2149,12C51.3123,85.5393,44,99.912,44,116z M96,148   c-17.672,0-32-14.3259-32-32c0-17.6739,14.328-32,32-32s32,14.3261,32,32C128,133.6741,113.672,148,96,148z" fill="#618287"/><circle cx="96" cy="116" fill="#2F4556" r="32"/><rect fill="#FE8657" height="46" width="12" x="12" y="24"/><rect fill="#FCC24C" height="46" width="12" x="24" y="24"/><rect fill="#7BE5E4" height="46" width="12" x="36" y="24"/><rect fill="#50CCD3" height="46" width="12" x="48" y="24"/></g></svg>